G04 #@! TF.FileFunction,Legend,Bot*
%FSLAX46Y46*%
G04 Gerber Fmt 4.6, Leading zero omitted, Abs format (unit mm)*
G04 Created by KiCad (PCBNEW 4.0.4-stable) date 12/28/16 17:41:51*
%MOMM*%
%LPD*%
G01*
G04 APERTURE LIST*
%ADD10C,0.100000*%
%ADD11C,0.250000*%
%ADD12C,0.150000*%
G04 APERTURE END LIST*
D10*
D11*
X137838095Y-105752381D02*
X137838095Y-104752381D01*
X137457142Y-104752381D01*
X137361904Y-104800000D01*
X137314285Y-104847619D01*
X137266666Y-104942857D01*
X137266666Y-105085714D01*
X137314285Y-105180952D01*
X137361904Y-105228571D01*
X137457142Y-105276190D01*
X137838095Y-105276190D01*
X136933333Y-104752381D02*
X136695238Y-105752381D01*
X136504761Y-105038095D01*
X136314285Y-105752381D01*
X136076190Y-104752381D01*
X135695238Y-105752381D02*
X135695238Y-104752381D01*
X135361904Y-105466667D01*
X135028571Y-104752381D01*
X135028571Y-105752381D01*
X133933333Y-104752381D02*
X133600000Y-105752381D01*
X133266666Y-104752381D01*
X132933333Y-105371429D02*
X132171428Y-105371429D01*
X132552380Y-105752381D02*
X132552380Y-104990476D01*
X130409523Y-104800000D02*
X130504761Y-104752381D01*
X130647618Y-104752381D01*
X130790476Y-104800000D01*
X130885714Y-104895238D01*
X130933333Y-104990476D01*
X130980952Y-105180952D01*
X130980952Y-105323810D01*
X130933333Y-105514286D01*
X130885714Y-105609524D01*
X130790476Y-105704762D01*
X130647618Y-105752381D01*
X130552380Y-105752381D01*
X130409523Y-105704762D01*
X130361904Y-105657143D01*
X130361904Y-105323810D01*
X130552380Y-105323810D01*
X129933333Y-105752381D02*
X129933333Y-104752381D01*
X129361904Y-105752381D01*
X129361904Y-104752381D01*
X128885714Y-105752381D02*
X128885714Y-104752381D01*
X128647619Y-104752381D01*
X128504761Y-104800000D01*
X128409523Y-104895238D01*
X128361904Y-104990476D01*
X128314285Y-105180952D01*
X128314285Y-105323810D01*
X128361904Y-105514286D01*
X128409523Y-105609524D01*
X128504761Y-105704762D01*
X128647619Y-105752381D01*
X128885714Y-105752381D01*
D12*
X89450000Y-107450000D02*
X91000000Y-107450000D01*
X94810000Y-107730000D02*
X92270000Y-107730000D01*
X92270000Y-107730000D02*
X92270000Y-110270000D01*
X91000000Y-110550000D02*
X89450000Y-110550000D01*
X89450000Y-110550000D02*
X89450000Y-107450000D01*
X92270000Y-110270000D02*
X94810000Y-110270000D01*
X94810000Y-110270000D02*
X94810000Y-107730000D01*
X102032000Y-105588000D02*
X102032000Y-104572000D01*
X101524000Y-105080000D02*
X102540000Y-105080000D01*
X94545000Y-97145000D02*
X97145000Y-94545000D01*
X94545000Y-97145000D02*
X94545000Y-94545000D01*
X94545000Y-94545000D02*
X97145000Y-94545000D01*
X105455000Y-102855000D02*
X102855000Y-105455000D01*
X105455000Y-105455000D02*
X105455000Y-102855000D01*
X102855000Y-105455000D02*
X105455000Y-105455000D01*
X103750000Y-100000000D02*
G75*
G03X103750000Y-100000000I-3750000J0D01*
G01*
X93325000Y-106675000D02*
X93325000Y-93325000D01*
X93325000Y-93325000D02*
X106675000Y-93325000D01*
X106675000Y-106675000D02*
X106675000Y-93325000D01*
X93325000Y-106675000D02*
X106675000Y-106675000D01*
X110550000Y-92550000D02*
X109000000Y-92550000D01*
X105190000Y-92270000D02*
X107730000Y-92270000D01*
X107730000Y-92270000D02*
X107730000Y-89730000D01*
X109000000Y-89450000D02*
X110550000Y-89450000D01*
X110550000Y-89450000D02*
X110550000Y-92550000D01*
X107730000Y-89730000D02*
X105190000Y-89730000D01*
X105190000Y-89730000D02*
X105190000Y-92270000D01*
X130660000Y-109550000D02*
X129110000Y-109550000D01*
X129110000Y-109550000D02*
X129110000Y-106450000D01*
X129110000Y-106450000D02*
X130660000Y-106450000D01*
X131930000Y-109270000D02*
X137010000Y-109270000D01*
X137010000Y-109270000D02*
X137010000Y-106730000D01*
X137010000Y-106730000D02*
X131930000Y-106730000D01*
X131930000Y-106730000D02*
X131930000Y-109270000D01*
X91738095Y-106852381D02*
X91738095Y-105852381D01*
X91357142Y-105852381D01*
X91261904Y-105900000D01*
X91214285Y-105947619D01*
X91166666Y-106042857D01*
X91166666Y-106185714D01*
X91214285Y-106280952D01*
X91261904Y-106328571D01*
X91357142Y-106376190D01*
X91738095Y-106376190D01*
X90309523Y-106185714D02*
X90309523Y-106852381D01*
X90547619Y-105804762D02*
X90785714Y-106519048D01*
X90166666Y-106519048D01*
X100538095Y-108252381D02*
X100538095Y-107252381D01*
X100300000Y-107252381D01*
X100157142Y-107300000D01*
X100061904Y-107395238D01*
X100014285Y-107490476D01*
X99966666Y-107680952D01*
X99966666Y-107823810D01*
X100014285Y-108014286D01*
X100061904Y-108109524D01*
X100157142Y-108204762D01*
X100300000Y-108252381D01*
X100538095Y-108252381D01*
X99014285Y-108252381D02*
X99585714Y-108252381D01*
X99300000Y-108252381D02*
X99300000Y-107252381D01*
X99395238Y-107395238D01*
X99490476Y-107490476D01*
X99585714Y-107538095D01*
X110138095Y-94452381D02*
X110138095Y-93452381D01*
X109757142Y-93452381D01*
X109661904Y-93500000D01*
X109614285Y-93547619D01*
X109566666Y-93642857D01*
X109566666Y-93785714D01*
X109614285Y-93880952D01*
X109661904Y-93928571D01*
X109757142Y-93976190D01*
X110138095Y-93976190D01*
X108661904Y-93452381D02*
X109138095Y-93452381D01*
X109185714Y-93928571D01*
X109138095Y-93880952D01*
X109042857Y-93833333D01*
X108804761Y-93833333D01*
X108709523Y-93880952D01*
X108661904Y-93928571D01*
X108614285Y-94023810D01*
X108614285Y-94261905D01*
X108661904Y-94357143D01*
X108709523Y-94404762D01*
X108804761Y-94452381D01*
X109042857Y-94452381D01*
X109138095Y-94404762D01*
X109185714Y-94357143D01*
X139488095Y-107452381D02*
X139488095Y-106452381D01*
X139107142Y-106452381D01*
X139011904Y-106500000D01*
X138964285Y-106547619D01*
X138916666Y-106642857D01*
X138916666Y-106785714D01*
X138964285Y-106880952D01*
X139011904Y-106928571D01*
X139107142Y-106976190D01*
X139488095Y-106976190D01*
X137964285Y-107452381D02*
X138535714Y-107452381D01*
X138250000Y-107452381D02*
X138250000Y-106452381D01*
X138345238Y-106595238D01*
X138440476Y-106690476D01*
X138535714Y-106738095D01*
M02*
