M48
;DRILL file {KiCad 4.0.4-stable} date 12/28/16 17:41:54
;FORMAT={-:-/ absolute / inch / decimal}
FMAT,2
INCH,TZ
T1C0.016
T2C0.040
%
G90
G05
M72
T1
X4.8228Y-4.124
X4.8228Y-4.1535
X4.8524Y-4.124
X4.8524Y-4.1535
X4.8819Y-4.124
X4.8819Y-4.1535
X5.0984Y-3.8386
X5.1772Y-3.8661
X5.1772Y-3.8976
X5.1772Y-3.9272
X5.2047Y-3.8661
X5.2067Y-3.8976
X5.2067Y-3.9272
X5.2067Y-3.9567
T2
X3.5827Y-4.2913
X3.6827Y-4.2913
X4.1913Y-3.5827
X4.2913Y-3.5827
X4.7638Y-4.2913
X4.8638Y-4.2913
X5.1441Y-4.252
X5.2441Y-4.252
X5.3441Y-4.252
X5.3724Y-3.5827
X5.4724Y-3.5827
T0
M30
