G04 #@! TF.FileFunction,Copper,L1,Top,Signal*
%FSLAX46Y46*%
G04 Gerber Fmt 4.6, Leading zero omitted, Abs format (unit mm)*
G04 Created by KiCad (PCBNEW 4.0.4-stable) date 12/28/16 17:41:51*
%MOMM*%
%LPD*%
G01*
G04 APERTURE LIST*
%ADD10C,0.100000*%
%ADD11R,2.032000X2.032000*%
%ADD12O,2.032000X2.032000*%
%ADD13R,1.000000X1.250000*%
%ADD14R,1.000000X1.000000*%
%ADD15R,6.000000X2.000000*%
%ADD16R,1.727200X2.032000*%
%ADD17O,1.727200X2.032000*%
%ADD18R,1.060000X0.650000*%
%ADD19R,1.700000X0.900000*%
%ADD20C,0.600000*%
%ADD21C,1.500000*%
%ADD22C,0.500000*%
%ADD23C,2.000000*%
%ADD24C,0.254000*%
G04 APERTURE END LIST*
D10*
D11*
X91000000Y-109000000D03*
D12*
X93540000Y-109000000D03*
D11*
X109000000Y-91000000D03*
D12*
X106460000Y-91000000D03*
D13*
X129200000Y-95200000D03*
X131200000Y-95200000D03*
X125000000Y-103250000D03*
X123000000Y-103250000D03*
D14*
X127800000Y-102750000D03*
X130300000Y-102750000D03*
D15*
X136000000Y-98350000D03*
X136000000Y-102850000D03*
D16*
X130660000Y-108000000D03*
D17*
X133200000Y-108000000D03*
X135740000Y-108000000D03*
D18*
X130150000Y-100434286D03*
X130150000Y-99484286D03*
X130150000Y-98534286D03*
X127950000Y-98534286D03*
X127950000Y-100434286D03*
D11*
X121000000Y-109000000D03*
D12*
X123540000Y-109000000D03*
D11*
X139000000Y-91000000D03*
D12*
X136460000Y-91000000D03*
D19*
X122800000Y-101050000D03*
X122800000Y-98150000D03*
X125200000Y-101050000D03*
X125200000Y-98150000D03*
D20*
X132200000Y-98200000D03*
X131500000Y-98200000D03*
X124000000Y-105500000D03*
X124000000Y-104750000D03*
X123250000Y-104750000D03*
X123250000Y-105500000D03*
X122500000Y-105500000D03*
X122500000Y-104750000D03*
X132250000Y-100500000D03*
X131500000Y-99750000D03*
X132250000Y-99750000D03*
X132250000Y-99000000D03*
X131500000Y-99000000D03*
X129500000Y-97500000D03*
D21*
X126500000Y-104750000D02*
X126500000Y-102500000D01*
X127000000Y-105250000D02*
X126500000Y-104750000D01*
X131750000Y-105250000D02*
X127000000Y-105250000D01*
X133200000Y-106700000D02*
X131750000Y-105250000D01*
X133200000Y-108000000D02*
X133200000Y-106700000D01*
D22*
X131500000Y-99000000D02*
X131500000Y-98200000D01*
X123250000Y-104750000D02*
X124000000Y-104750000D01*
X122500000Y-105500000D02*
X123250000Y-105500000D01*
X123000000Y-103250000D02*
X123000000Y-104250000D01*
X123000000Y-104250000D02*
X122500000Y-104750000D01*
X131500000Y-99750000D02*
X132250000Y-100500000D01*
X132250000Y-99000000D02*
X132250000Y-99750000D01*
X130150000Y-99484286D02*
X131015714Y-99484286D01*
X131015714Y-99484286D02*
X131500000Y-99000000D01*
X130300000Y-102750000D02*
X130300000Y-100584286D01*
X130300000Y-100584286D02*
X130150000Y-100434286D01*
X130000000Y-97500000D02*
X130150000Y-97650000D01*
X130150000Y-97650000D02*
X130150000Y-98534286D01*
X129500000Y-97500000D02*
X130000000Y-97500000D01*
D21*
X121100000Y-97500000D02*
X122750000Y-97500000D01*
X120250000Y-98750000D02*
X120250000Y-98350000D01*
X120250000Y-98350000D02*
X121100000Y-97500000D01*
X120250000Y-106750000D02*
X120250000Y-98750000D01*
X121000000Y-107500000D02*
X120250000Y-106750000D01*
X121000000Y-109000000D02*
X121000000Y-107500000D01*
D23*
X121000000Y-109000000D02*
X123540000Y-109000000D01*
D24*
G36*
X129623000Y-96373000D02*
X129500000Y-96373000D01*
X129450590Y-96383006D01*
X129410197Y-96410197D01*
X129213817Y-96606577D01*
X128971057Y-96706883D01*
X128707808Y-96969673D01*
X128606326Y-97214068D01*
X128410197Y-97410197D01*
X128382334Y-97452211D01*
X128373000Y-97500000D01*
X128373000Y-98623000D01*
X122127000Y-98623000D01*
X122127000Y-96877000D01*
X125500000Y-96877000D01*
X125549410Y-96866994D01*
X125576200Y-96851600D01*
X128542333Y-94627000D01*
X129623000Y-94627000D01*
X129623000Y-96373000D01*
X129623000Y-96373000D01*
G37*
X129623000Y-96373000D02*
X129500000Y-96373000D01*
X129450590Y-96383006D01*
X129410197Y-96410197D01*
X129213817Y-96606577D01*
X128971057Y-96706883D01*
X128707808Y-96969673D01*
X128606326Y-97214068D01*
X128410197Y-97410197D01*
X128382334Y-97452211D01*
X128373000Y-97500000D01*
X128373000Y-98623000D01*
X122127000Y-98623000D01*
X122127000Y-96877000D01*
X125500000Y-96877000D01*
X125549410Y-96866994D01*
X125576200Y-96851600D01*
X128542333Y-94627000D01*
X129623000Y-94627000D01*
X129623000Y-96373000D01*
G36*
X131203164Y-100704744D02*
X131407255Y-100908835D01*
X131456883Y-101028943D01*
X131719673Y-101292192D01*
X132063201Y-101434838D01*
X132298613Y-101435043D01*
X132929553Y-101855670D01*
X133000000Y-101877000D01*
X138873000Y-101877000D01*
X138873000Y-103623000D01*
X129877000Y-103623000D01*
X129877000Y-100456726D01*
X130680000Y-100456726D01*
X130797869Y-100434547D01*
X131203164Y-100704744D01*
X131203164Y-100704744D01*
G37*
X131203164Y-100704744D02*
X131407255Y-100908835D01*
X131456883Y-101028943D01*
X131719673Y-101292192D01*
X132063201Y-101434838D01*
X132298613Y-101435043D01*
X132929553Y-101855670D01*
X133000000Y-101877000D01*
X138873000Y-101877000D01*
X138873000Y-103623000D01*
X129877000Y-103623000D01*
X129877000Y-100456726D01*
X130680000Y-100456726D01*
X130797869Y-100434547D01*
X131203164Y-100704744D01*
G36*
X128373000Y-103623000D02*
X124627000Y-103623000D01*
X124627000Y-102500000D01*
X124620483Y-102459839D01*
X124370483Y-101709839D01*
X124345366Y-101666129D01*
X124305221Y-101635634D01*
X124250000Y-101623000D01*
X122127000Y-101623000D01*
X122127000Y-100627000D01*
X126000000Y-100627000D01*
X126047167Y-100617917D01*
X127274460Y-100127000D01*
X128373000Y-100127000D01*
X128373000Y-103623000D01*
X128373000Y-103623000D01*
G37*
X128373000Y-103623000D02*
X124627000Y-103623000D01*
X124627000Y-102500000D01*
X124620483Y-102459839D01*
X124370483Y-101709839D01*
X124345366Y-101666129D01*
X124305221Y-101635634D01*
X124250000Y-101623000D01*
X122127000Y-101623000D01*
X122127000Y-100627000D01*
X126000000Y-100627000D01*
X126047167Y-100617917D01*
X127274460Y-100127000D01*
X128373000Y-100127000D01*
X128373000Y-103623000D01*
G36*
X140123000Y-99373000D02*
X133135000Y-99373000D01*
X133135000Y-99306822D01*
X133184838Y-99186799D01*
X133185162Y-98814833D01*
X133127000Y-98674070D01*
X133127000Y-98405675D01*
X133134838Y-98386799D01*
X133135162Y-98014833D01*
X133127000Y-97995079D01*
X133127000Y-97250000D01*
X133116994Y-97200590D01*
X133099170Y-97170664D01*
X132099170Y-95920664D01*
X132060491Y-95888331D01*
X132000000Y-95873000D01*
X130877000Y-95873000D01*
X130877000Y-94552606D01*
X135552606Y-89877000D01*
X140123000Y-89877000D01*
X140123000Y-99373000D01*
X140123000Y-99373000D01*
G37*
X140123000Y-99373000D02*
X133135000Y-99373000D01*
X133135000Y-99306822D01*
X133184838Y-99186799D01*
X133185162Y-98814833D01*
X133127000Y-98674070D01*
X133127000Y-98405675D01*
X133134838Y-98386799D01*
X133135162Y-98014833D01*
X133127000Y-97995079D01*
X133127000Y-97250000D01*
X133116994Y-97200590D01*
X133099170Y-97170664D01*
X132099170Y-95920664D01*
X132060491Y-95888331D01*
X132000000Y-95873000D01*
X130877000Y-95873000D01*
X130877000Y-94552606D01*
X135552606Y-89877000D01*
X140123000Y-89877000D01*
X140123000Y-99373000D01*
M02*
