G04 #@! TF.FileFunction,Copper,L2,Bot,Signal*
%FSLAX46Y46*%
G04 Gerber Fmt 4.6, Leading zero omitted, Abs format (unit mm)*
G04 Created by KiCad (PCBNEW 4.0.4-stable) date 12/28/16 17:41:51*
%MOMM*%
%LPD*%
G01*
G04 APERTURE LIST*
%ADD10C,0.100000*%
%ADD11R,2.032000X2.032000*%
%ADD12O,2.032000X2.032000*%
%ADD13R,1.727200X2.032000*%
%ADD14O,1.727200X2.032000*%
%ADD15C,0.600000*%
%ADD16C,0.500000*%
%ADD17C,2.000000*%
%ADD18C,0.254000*%
G04 APERTURE END LIST*
D10*
D11*
X91000000Y-109000000D03*
D12*
X93540000Y-109000000D03*
D10*
G36*
X101919466Y-105455000D02*
X105455000Y-101919466D01*
X108990534Y-105455000D01*
X105455000Y-108990534D01*
X101919466Y-105455000D01*
X101919466Y-105455000D01*
G37*
G36*
X91009466Y-94545000D02*
X94545000Y-91009466D01*
X98080534Y-94545000D01*
X94545000Y-98080534D01*
X91009466Y-94545000D01*
X91009466Y-94545000D01*
G37*
D11*
X109000000Y-91000000D03*
D12*
X106460000Y-91000000D03*
D13*
X130660000Y-108000000D03*
D14*
X133200000Y-108000000D03*
X135740000Y-108000000D03*
D11*
X121000000Y-109000000D03*
D12*
X123540000Y-109000000D03*
D11*
X139000000Y-91000000D03*
D12*
X136460000Y-91000000D03*
D15*
X132200000Y-98200000D03*
X131500000Y-98200000D03*
X124000000Y-105500000D03*
X124000000Y-104750000D03*
X123250000Y-104750000D03*
X123250000Y-105500000D03*
X122500000Y-105500000D03*
X122500000Y-104750000D03*
X132250000Y-100500000D03*
X131500000Y-99750000D03*
X132250000Y-99750000D03*
X132250000Y-99000000D03*
X131500000Y-99000000D03*
X129500000Y-97500000D03*
D16*
X131500000Y-98200000D02*
X132200000Y-98200000D01*
X124000000Y-104750000D02*
X124000000Y-105500000D01*
X123250000Y-105500000D02*
X123250000Y-104750000D01*
X122500000Y-104750000D02*
X122500000Y-105500000D01*
X132250000Y-99750000D02*
X131500000Y-99750000D01*
X131500000Y-99000000D02*
X132250000Y-99000000D01*
X129250000Y-101357600D02*
X129250000Y-97750000D01*
X129250000Y-97750000D02*
X129500000Y-97500000D01*
X135740000Y-108000000D02*
X135740000Y-107847600D01*
X135740000Y-107847600D02*
X129250000Y-101357600D01*
D17*
X93540000Y-109000000D02*
X101910000Y-109000000D01*
X101910000Y-109000000D02*
X105455000Y-105455000D01*
X91000000Y-109000000D02*
X93540000Y-109000000D01*
X98090000Y-91000000D02*
X94545000Y-94545000D01*
X106460000Y-91000000D02*
X98090000Y-91000000D01*
X109000000Y-91000000D02*
X106460000Y-91000000D01*
D18*
G36*
X135260222Y-89832567D02*
X134902330Y-90368190D01*
X134776655Y-91000000D01*
X134902330Y-91631810D01*
X135260222Y-92167433D01*
X135795845Y-92525325D01*
X136427655Y-92651000D01*
X136492345Y-92651000D01*
X137124155Y-92525325D01*
X137426962Y-92322996D01*
X137519910Y-92467441D01*
X137732110Y-92612431D01*
X137984000Y-92663440D01*
X140016000Y-92663440D01*
X140251317Y-92619162D01*
X140265000Y-92610357D01*
X140265000Y-110265000D01*
X124593759Y-110265000D01*
X124739778Y-110167433D01*
X125097670Y-109631810D01*
X125223345Y-109000000D01*
X125097670Y-108368190D01*
X124739778Y-107832567D01*
X124204155Y-107474675D01*
X123572345Y-107349000D01*
X123507655Y-107349000D01*
X122875845Y-107474675D01*
X122573038Y-107677004D01*
X122480090Y-107532559D01*
X122267890Y-107387569D01*
X122016000Y-107336560D01*
X119984000Y-107336560D01*
X119748683Y-107380838D01*
X119735000Y-107389643D01*
X119735000Y-97750000D01*
X128364999Y-97750000D01*
X128365000Y-97750005D01*
X128365000Y-101357595D01*
X128364999Y-101357600D01*
X128421190Y-101640084D01*
X128432367Y-101696275D01*
X128516009Y-101821455D01*
X128624210Y-101983390D01*
X132997713Y-106356892D01*
X132626511Y-106430729D01*
X132140330Y-106755585D01*
X131815474Y-107241766D01*
X131701400Y-107815255D01*
X131701400Y-108184745D01*
X131815474Y-108758234D01*
X132140330Y-109244415D01*
X132626511Y-109569271D01*
X133200000Y-109683345D01*
X133773489Y-109569271D01*
X134259670Y-109244415D01*
X134470000Y-108929634D01*
X134680330Y-109244415D01*
X135166511Y-109569271D01*
X135740000Y-109683345D01*
X136313489Y-109569271D01*
X136799670Y-109244415D01*
X137124526Y-108758234D01*
X137238600Y-108184745D01*
X137238600Y-107815255D01*
X137124526Y-107241766D01*
X136799670Y-106755585D01*
X136313489Y-106430729D01*
X135740000Y-106316655D01*
X135506984Y-106363005D01*
X130135000Y-100991020D01*
X130135000Y-98187245D01*
X130292192Y-98030327D01*
X130434838Y-97686799D01*
X130435162Y-97314833D01*
X130293117Y-96971057D01*
X130030327Y-96707808D01*
X129686799Y-96565162D01*
X129314833Y-96564838D01*
X128971057Y-96706883D01*
X128707808Y-96969673D01*
X128657434Y-97090986D01*
X128624210Y-97124210D01*
X128432367Y-97411325D01*
X128432367Y-97411326D01*
X128364999Y-97750000D01*
X119735000Y-97750000D01*
X119735000Y-95735000D01*
X123750000Y-95735000D01*
X123792836Y-95726479D01*
X123836375Y-95729907D01*
X123932326Y-95698733D01*
X124031272Y-95679051D01*
X124067585Y-95654788D01*
X124109123Y-95641292D01*
X130359123Y-92141292D01*
X130435842Y-92075771D01*
X130519723Y-92019723D01*
X130543987Y-91983410D01*
X130577198Y-91955046D01*
X130623002Y-91865155D01*
X130679051Y-91781272D01*
X130687572Y-91738436D01*
X130707400Y-91699523D01*
X130715317Y-91598952D01*
X130735000Y-91500000D01*
X130735000Y-89735000D01*
X135406241Y-89735000D01*
X135260222Y-89832567D01*
X135260222Y-89832567D01*
G37*
X135260222Y-89832567D02*
X134902330Y-90368190D01*
X134776655Y-91000000D01*
X134902330Y-91631810D01*
X135260222Y-92167433D01*
X135795845Y-92525325D01*
X136427655Y-92651000D01*
X136492345Y-92651000D01*
X137124155Y-92525325D01*
X137426962Y-92322996D01*
X137519910Y-92467441D01*
X137732110Y-92612431D01*
X137984000Y-92663440D01*
X140016000Y-92663440D01*
X140251317Y-92619162D01*
X140265000Y-92610357D01*
X140265000Y-110265000D01*
X124593759Y-110265000D01*
X124739778Y-110167433D01*
X125097670Y-109631810D01*
X125223345Y-109000000D01*
X125097670Y-108368190D01*
X124739778Y-107832567D01*
X124204155Y-107474675D01*
X123572345Y-107349000D01*
X123507655Y-107349000D01*
X122875845Y-107474675D01*
X122573038Y-107677004D01*
X122480090Y-107532559D01*
X122267890Y-107387569D01*
X122016000Y-107336560D01*
X119984000Y-107336560D01*
X119748683Y-107380838D01*
X119735000Y-107389643D01*
X119735000Y-97750000D01*
X128364999Y-97750000D01*
X128365000Y-97750005D01*
X128365000Y-101357595D01*
X128364999Y-101357600D01*
X128421190Y-101640084D01*
X128432367Y-101696275D01*
X128516009Y-101821455D01*
X128624210Y-101983390D01*
X132997713Y-106356892D01*
X132626511Y-106430729D01*
X132140330Y-106755585D01*
X131815474Y-107241766D01*
X131701400Y-107815255D01*
X131701400Y-108184745D01*
X131815474Y-108758234D01*
X132140330Y-109244415D01*
X132626511Y-109569271D01*
X133200000Y-109683345D01*
X133773489Y-109569271D01*
X134259670Y-109244415D01*
X134470000Y-108929634D01*
X134680330Y-109244415D01*
X135166511Y-109569271D01*
X135740000Y-109683345D01*
X136313489Y-109569271D01*
X136799670Y-109244415D01*
X137124526Y-108758234D01*
X137238600Y-108184745D01*
X137238600Y-107815255D01*
X137124526Y-107241766D01*
X136799670Y-106755585D01*
X136313489Y-106430729D01*
X135740000Y-106316655D01*
X135506984Y-106363005D01*
X130135000Y-100991020D01*
X130135000Y-98187245D01*
X130292192Y-98030327D01*
X130434838Y-97686799D01*
X130435162Y-97314833D01*
X130293117Y-96971057D01*
X130030327Y-96707808D01*
X129686799Y-96565162D01*
X129314833Y-96564838D01*
X128971057Y-96706883D01*
X128707808Y-96969673D01*
X128657434Y-97090986D01*
X128624210Y-97124210D01*
X128432367Y-97411325D01*
X128432367Y-97411326D01*
X128364999Y-97750000D01*
X119735000Y-97750000D01*
X119735000Y-95735000D01*
X123750000Y-95735000D01*
X123792836Y-95726479D01*
X123836375Y-95729907D01*
X123932326Y-95698733D01*
X124031272Y-95679051D01*
X124067585Y-95654788D01*
X124109123Y-95641292D01*
X130359123Y-92141292D01*
X130435842Y-92075771D01*
X130519723Y-92019723D01*
X130543987Y-91983410D01*
X130577198Y-91955046D01*
X130623002Y-91865155D01*
X130679051Y-91781272D01*
X130687572Y-91738436D01*
X130707400Y-91699523D01*
X130715317Y-91598952D01*
X130735000Y-91500000D01*
X130735000Y-89735000D01*
X135406241Y-89735000D01*
X135260222Y-89832567D01*
M02*
